# xmcd
#
# Track frame offsets:
#	180
#	18290
#	30951
#	53098
#	71052
#	86985
#	106767
#	124591
#	138830
#	153703
#	165855
#	181793
#
# Disc length: 2757 seconds
#
# Revision: 0
# Processed by: cddbd v1.4PL0 Copyright (c) Steve Scherf et al.
# Submitted via: dBpowerAMP V4.0
#
DISCID=8b0ac30c
DTITLE=Close Connection - Life's A Railway
DYEAR=2000
DGENRE=Gospel
TTITLE0=Life's A Railway to Heaven
TTITLE1=Come Blow Your Horn
TTITLE2=Loving God, Loving Each Other
TTITLE3=Just A Little While
TTITLE4=Let Not Your Heart Be Troubled
TTITLE5=Bound
TTITLE6=Goodbye World Goodbye
TTITLE7=Sweet, Sweet Spirit
TTITLE8=Old Country Church
TTITLE9=Heaven's Really Gonna Shine
TTITLE10=I Know My Savior Is There
TTITLE11=Swing Low, Will the Circle, People Get Ready MEDLY
EXTD=
EXTT0=
EXTT1=
EXTT2=
EXTT3=
EXTT4=
EXTT5=
EXTT6=
EXTT7=
EXTT8=
EXTT9=
EXTT10=
EXTT11=
PLAYORDER=
